<svg width="20" height="20" viewBox="0 0 20 20" fill="none" xmlns="http://www.w3.org/2000/svg">
<rect width="20" height="20" rx="10" fill="white"/>
<path d="M10.3334 15.3333H4.33337C3.78109 15.3333 3.33337 14.8856 3.33337 14.3333V5.66663C3.33337 5.11434 3.78109 4.66663 4.33337 4.66663H15.6667C16.219 4.66663 16.6667 5.11434 16.6667 5.66663V10.3137" stroke="black" stroke-width="2" stroke-linecap="round" stroke-linejoin="round"/>
<path d="M3.33337 5.66663C3.33337 5.11434 3.78109 4.66663 4.33337 4.66663H15.6667C16.219 4.66663 16.6667 5.11434 16.6667 5.66663V8.66663H3.33337V5.66663Z" fill="#FF2F32" stroke="black" stroke-width="2"/>
<path d="M12.6667 13.6666H16.6667" stroke="black" stroke-width="2" stroke-linecap="round" stroke-linejoin="round"/>
<path d="M14.6667 11.6666V15.6666" stroke="black" stroke-width="2" stroke-linecap="round" stroke-linejoin="round"/>
<path d="M4.66667 6.66659C4.66667 6.2984 4.96514 5.99992 5.33333 5.99992C5.70152 5.99992 6 6.2984 6 6.66659C6 7.03478 5.70152 7.33325 5.33333 7.33325C4.96514 7.33325 4.66667 7.03478 4.66667 6.66659Z" fill="white"/>
<path d="M6.66667 6.66659C6.66667 6.2984 6.96514 5.99992 7.33333 5.99992C7.70152 5.99992 8 6.2984 8 6.66659C8 7.03478 7.70152 7.33325 7.33333 7.33325C6.96514 7.33325 6.66667 7.03478 6.66667 6.66659Z" fill="white"/>
</svg>
