<svg width="20" height="20" viewBox="0 0 20 20" fill="none" xmlns="http://www.w3.org/2000/svg">
<rect width="20" height="20" rx="10" fill="white"/>
<path d="M15.6667 4.66669H4.33337C3.78109 4.66669 3.33337 5.1144 3.33337 5.66669V14.3334C3.33337 14.8856 3.78109 15.3334 4.33337 15.3334H15.6667C16.219 15.3334 16.6667 14.8856 16.6667 14.3334V5.66669C16.6667 5.1144 16.219 4.66669 15.6667 4.66669Z" stroke="black" stroke-width="2" stroke-linejoin="round"/>
<path d="M3.33337 5.66669C3.33337 5.1144 3.78109 4.66669 4.33337 4.66669H15.6667C16.219 4.66669 16.6667 5.1144 16.6667 5.66669V8.66669H3.33337V5.66669Z" fill="#2F88FF" stroke="black" stroke-width="2"/>
<path d="M4.66667 6.66671C4.66667 6.29852 4.96514 6.00004 5.33333 6.00004C5.70152 6.00004 6 6.29852 6 6.66671C6 7.0349 5.70152 7.33337 5.33333 7.33337C4.96514 7.33337 4.66667 7.0349 4.66667 6.66671Z" fill="white"/>
<path d="M6.66667 6.66671C6.66667 6.29852 6.96514 6.00004 7.33333 6.00004C7.70152 6.00004 8 6.29852 8 6.66671C8 7.0349 7.70152 7.33337 7.33333 7.33337C6.96514 7.33337 6.66667 7.0349 6.66667 6.66671Z" fill="white"/>
</svg>
