<svg width="20" height="20" viewBox="0 0 20 20" fill="none" xmlns="http://www.w3.org/2000/svg">
<rect width="20" height="20" rx="10" fill="white"/>
<g clip-path="url(#clip0_9_167)">
<path d="M7.97656 17.1094C9.27813 17.1094 10.3281 16.0594 10.3281 14.7578V12.4062H7.97656C6.675 12.4062 5.625 13.4563 5.625 14.7578C5.625 16.0594 6.675 17.1094 7.97656 17.1094Z" fill="#0ACF83"/>
<path d="M5.625 10.0547C5.625 8.75313 6.675 7.70312 7.97656 7.70312H10.3281V12.4062H7.97656C6.675 12.4062 5.625 11.3563 5.625 10.0547Z" fill="#A259FF"/>
<path d="M5.625 5.35156C5.625 4.05 6.675 3 7.97656 3H10.3281V7.70312H7.97656C6.675 7.70312 5.625 6.65313 5.625 5.35156Z" fill="#F24E1E"/>
<path d="M10.3281 3H12.6797C13.9813 3 15.0312 4.05 15.0312 5.35156C15.0312 6.65313 13.9813 7.70312 12.6797 7.70312H10.3281V3Z" fill="#FF7262"/>
<path d="M15.0312 10.0547C15.0312 11.3563 13.9813 12.4062 12.6797 12.4062C11.3781 12.4062 10.3281 11.3563 10.3281 10.0547C10.3281 8.75313 11.3781 7.70312 12.6797 7.70312C13.9813 7.70312 15.0312 8.75313 15.0312 10.0547Z" fill="#1ABCFE"/>
</g>
<defs>
<clipPath id="clip0_9_167">
<rect width="14" height="14" fill="white" transform="translate(3 3)"/>
</clipPath>
</defs>
</svg>
