<svg width="20" height="20" viewBox="0 0 20 20" fill="none" xmlns="http://www.w3.org/2000/svg">
<rect width="20" height="20" rx="10" fill="white"/>
<g clip-path="url(#clip0_12_19)">
<path fill-rule="evenodd" clip-rule="evenodd" d="M10 2.63788C5.83166 2.63788 2.45154 6.01725 2.45154 10.1864C2.45154 13.5216 4.61441 16.351 7.61366 17.3493C7.99079 17.4193 8.12929 17.1855 8.12929 16.9861C8.12929 16.8061 8.12229 16.2115 8.11904 15.5808C6.01904 16.0374 5.57591 14.6901 5.57591 14.6901C5.23254 13.8176 4.73779 13.5856 4.73779 13.5856C4.05279 13.1171 4.78941 13.1269 4.78941 13.1269C5.54729 13.18 5.94654 13.9048 5.94654 13.9048C6.61979 15.0585 7.71241 14.725 8.14316 14.5323C8.21091 14.0444 8.40654 13.7113 8.62241 13.5228C6.94579 13.3321 5.18316 12.6848 5.18316 9.79238C5.18316 8.96825 5.47816 8.29488 5.96104 7.76613C5.88254 7.57613 5.62416 6.80838 6.03404 5.76863C6.03404 5.76863 6.66779 5.56575 8.11029 6.54238C8.71254 6.375 9.35841 6.29088 10 6.288C10.6413 6.29088 11.2875 6.37475 11.8909 6.54213C13.3317 5.5655 13.9647 5.76838 13.9647 5.76838C14.3755 6.808 14.1172 7.57588 14.0388 7.76588C14.5228 8.29463 14.8157 8.968 14.8157 9.79213C14.8157 12.6914 13.0498 13.3296 11.3689 13.5166C11.6398 13.7509 11.881 14.2104 11.881 14.9145C11.881 15.9245 11.8723 16.7374 11.8723 16.986C11.8723 17.1869 12.0083 17.4223 12.3908 17.3481C15.3883 16.3489 17.5487 13.5204 17.5487 10.1864C17.5485 6.0175 14.1688 2.63788 10 2.63788Z" fill="#181616"/>
<path d="M5.31057 13.4757C5.29395 13.5132 5.23495 13.5245 5.1812 13.4989C5.1262 13.4744 5.09557 13.4232 5.11332 13.3856C5.12957 13.3469 5.1887 13.3362 5.24332 13.3621C5.29832 13.3867 5.32957 13.4384 5.31045 13.4759L5.31057 13.4757ZM5.61632 13.8169C5.58045 13.8502 5.51007 13.8347 5.46232 13.7819C5.41282 13.7294 5.40357 13.659 5.4402 13.6251C5.47745 13.5919 5.5457 13.6076 5.5952 13.6601C5.64445 13.7134 5.6542 13.7831 5.61645 13.817L5.61632 13.8169ZM5.91407 14.2515C5.86782 14.2837 5.79207 14.2536 5.74532 14.1865C5.69907 14.1192 5.69907 14.0386 5.74657 14.0065C5.7932 13.9742 5.86782 14.0034 5.91532 14.0699C5.96132 14.138 5.96132 14.2187 5.91407 14.2515ZM6.3217 14.6716C6.28045 14.7172 6.1922 14.705 6.1277 14.6429C6.06182 14.582 6.04345 14.4954 6.08482 14.4499C6.12682 14.4041 6.21545 14.4169 6.28032 14.4786C6.3462 14.5394 6.36607 14.6261 6.32195 14.6715L6.3217 14.6716ZM6.8842 14.9155C6.86582 14.9746 6.78107 15.0015 6.69545 14.9762C6.61007 14.9504 6.5542 14.8812 6.5717 14.8215C6.5892 14.7619 6.67457 14.734 6.7607 14.7609C6.84607 14.7866 6.90195 14.8554 6.8842 14.9155ZM7.50207 14.9606C7.5042 15.0229 7.4317 15.0744 7.34207 15.0756C7.2517 15.0777 7.17857 15.0272 7.1777 14.966C7.1777 14.9031 7.2487 14.8522 7.33895 14.8505C7.42857 14.8489 7.5022 14.8989 7.5022 14.9605L7.50207 14.9606ZM8.07682 14.8629C8.08757 14.9235 8.0252 14.9859 7.93607 15.0025C7.84857 15.0187 7.76732 14.981 7.75607 14.9209C7.74532 14.8586 7.80882 14.7962 7.89632 14.7801C7.98557 14.7647 8.06557 14.8012 8.07682 14.8629Z" fill="#181616"/>
</g>
<defs>
<clipPath id="clip0_12_19">
<rect width="16" height="16" fill="white" transform="translate(2 2)"/>
</clipPath>
</defs>
</svg>
